<mxfile host="app.diagrams.net" modified="2022-04-26T10:29:29.108Z" agent="5.0 (Macintosh; Intel Mac OS X 10_15_7) AppleWebKit/537.36 (KHTML, like Gecko) Chrome/100.0.4896.127 Safari/537.36" etag="iETGeZhkigu9h21klx64" version="17.4.6" type="github">
  <diagram id="KMXydycU-uxv-uzApv2B" name="Page-1">
    <mxGraphModel dx="1032" dy="697" grid="1" gridSize="10" guides="1" tooltips="1" connect="1" arrows="1" fold="1" page="1" pageScale="1" pageWidth="827" pageHeight="1169" math="0" shadow="0">
      <root>
        <mxCell id="0" />
        <mxCell id="1" parent="0" />
        <mxCell id="QYHa1zAlV3X802RXDRBL-1" value="" style="whiteSpace=wrap;html=1;aspect=fixed;" vertex="1" parent="1">
          <mxGeometry x="200" y="160" width="430" height="430" as="geometry" />
        </mxCell>
        <mxCell id="QYHa1zAlV3X802RXDRBL-2" value="Cypher 模块" style="text;html=1;strokeColor=none;fillColor=none;align=center;verticalAlign=middle;whiteSpace=wrap;rounded=0;" vertex="1" parent="1">
          <mxGeometry x="90" y="196" width="100" height="30" as="geometry" />
        </mxCell>
        <mxCell id="QYHa1zAlV3X802RXDRBL-6" style="edgeStyle=orthogonalEdgeStyle;rounded=0;orthogonalLoop=1;jettySize=auto;html=1;fontSize=18;" edge="1" parent="1" source="QYHa1zAlV3X802RXDRBL-3" target="QYHa1zAlV3X802RXDRBL-4">
          <mxGeometry relative="1" as="geometry" />
        </mxCell>
        <mxCell id="QYHa1zAlV3X802RXDRBL-3" value="&lt;font style=&quot;font-size: 18px&quot;&gt;Instance&lt;/font&gt;" style="rounded=0;whiteSpace=wrap;html=1;" vertex="1" parent="1">
          <mxGeometry x="210" y="210" width="120" height="56" as="geometry" />
        </mxCell>
        <mxCell id="QYHa1zAlV3X802RXDRBL-7" style="edgeStyle=orthogonalEdgeStyle;rounded=0;orthogonalLoop=1;jettySize=auto;html=1;exitX=1;exitY=0.5;exitDx=0;exitDy=0;entryX=0;entryY=0.5;entryDx=0;entryDy=0;fontSize=18;" edge="1" parent="1" source="QYHa1zAlV3X802RXDRBL-4" target="QYHa1zAlV3X802RXDRBL-5">
          <mxGeometry relative="1" as="geometry" />
        </mxCell>
        <mxCell id="QYHa1zAlV3X802RXDRBL-4" value="flex bison" style="rounded=0;whiteSpace=wrap;html=1;fontSize=18;" vertex="1" parent="1">
          <mxGeometry x="210" y="310" width="120" height="60" as="geometry" />
        </mxCell>
        <mxCell id="QYHa1zAlV3X802RXDRBL-9" style="edgeStyle=orthogonalEdgeStyle;rounded=0;orthogonalLoop=1;jettySize=auto;html=1;entryX=0.5;entryY=0;entryDx=0;entryDy=0;fontSize=18;" edge="1" parent="1" source="QYHa1zAlV3X802RXDRBL-5" target="QYHa1zAlV3X802RXDRBL-8">
          <mxGeometry relative="1" as="geometry" />
        </mxCell>
        <mxCell id="QYHa1zAlV3X802RXDRBL-5" value="validator" style="rounded=0;whiteSpace=wrap;html=1;fontSize=18;" vertex="1" parent="1">
          <mxGeometry x="490" y="310" width="120" height="60" as="geometry" />
        </mxCell>
        <mxCell id="QYHa1zAlV3X802RXDRBL-15" style="edgeStyle=orthogonalEdgeStyle;rounded=0;orthogonalLoop=1;jettySize=auto;html=1;exitX=0;exitY=0.5;exitDx=0;exitDy=0;entryX=1;entryY=0.5;entryDx=0;entryDy=0;fontSize=18;" edge="1" parent="1" source="QYHa1zAlV3X802RXDRBL-8" target="QYHa1zAlV3X802RXDRBL-14">
          <mxGeometry relative="1" as="geometry" />
        </mxCell>
        <mxCell id="QYHa1zAlV3X802RXDRBL-19" value="merge" style="edgeLabel;html=1;align=center;verticalAlign=middle;resizable=0;points=[];fontSize=18;" vertex="1" connectable="0" parent="QYHa1zAlV3X802RXDRBL-15">
          <mxGeometry x="-0.3" y="1" relative="1" as="geometry">
            <mxPoint x="-19" y="-1" as="offset" />
          </mxGeometry>
        </mxCell>
        <mxCell id="QYHa1zAlV3X802RXDRBL-8" value="executor plan" style="rounded=0;whiteSpace=wrap;html=1;fontSize=18;" vertex="1" parent="1">
          <mxGeometry x="490" y="470" width="120" height="60" as="geometry" />
        </mxCell>
        <mxCell id="QYHa1zAlV3X802RXDRBL-10" value="sentence" style="text;html=1;strokeColor=none;fillColor=none;align=center;verticalAlign=middle;whiteSpace=wrap;rounded=0;fontSize=18;" vertex="1" parent="1">
          <mxGeometry x="370" y="296" width="60" height="30" as="geometry" />
        </mxCell>
        <mxCell id="QYHa1zAlV3X802RXDRBL-11" value="plannode" style="text;html=1;strokeColor=none;fillColor=none;align=center;verticalAlign=middle;whiteSpace=wrap;rounded=0;fontSize=18;" vertex="1" parent="1">
          <mxGeometry x="460" y="366" width="60" height="30" as="geometry" />
        </mxCell>
        <mxCell id="QYHa1zAlV3X802RXDRBL-14" value="ast" style="rounded=0;whiteSpace=wrap;html=1;fontSize=18;" vertex="1" parent="1">
          <mxGeometry x="210" y="470" width="120" height="60" as="geometry" />
        </mxCell>
        <mxCell id="QYHa1zAlV3X802RXDRBL-17" style="edgeStyle=orthogonalEdgeStyle;rounded=0;orthogonalLoop=1;jettySize=auto;html=1;entryX=0.384;entryY=0;entryDx=0;entryDy=0;entryPerimeter=0;fontSize=18;" edge="1" parent="1" source="QYHa1zAlV3X802RXDRBL-16" target="QYHa1zAlV3X802RXDRBL-1">
          <mxGeometry relative="1" as="geometry" />
        </mxCell>
        <mxCell id="QYHa1zAlV3X802RXDRBL-16" value="权限认证模块" style="rounded=0;whiteSpace=wrap;html=1;fontSize=18;" vertex="1" parent="1">
          <mxGeometry x="100" y="60" width="530" height="50" as="geometry" />
        </mxCell>
        <mxCell id="QYHa1zAlV3X802RXDRBL-18" value="Cypher&amp;nbsp; client 模块" style="text;html=1;strokeColor=none;fillColor=none;align=center;verticalAlign=middle;whiteSpace=wrap;rounded=0;fontSize=18;" vertex="1" parent="1">
          <mxGeometry x="190" y="180" width="190" height="30" as="geometry" />
        </mxCell>
        <mxCell id="QYHa1zAlV3X802RXDRBL-21" value="clientInfo" style="rounded=0;whiteSpace=wrap;html=1;fontSize=18;" vertex="1" parent="1">
          <mxGeometry x="353.5" y="208" width="120" height="60" as="geometry" />
        </mxCell>
      </root>
    </mxGraphModel>
  </diagram>
</mxfile>
